<svg xmlns="http://www.w3.org/2000/svg" viewBox="0 0 640 360" width="640" height="360">
  <defs>
    <linearGradient id="bg" x1="0%" y1="0%" x2="100%" y2="100%">
      <stop offset="0%" stop-color="#0c1a2e"/>
      <stop offset="100%" stop-color="#0f172a"/>
    </linearGradient>
  </defs>
  <rect width="640" height="360" fill="url(#bg)"/>
  <!-- Hexagons -->
  <polygon points="320,60 370,88 370,144 320,172 270,144 270,88" fill="none" stroke="#0ea5e9" stroke-opacity="0.4" stroke-width="1.5"/>
  <polygon points="320,90 350,107 350,141 320,158 290,141 290,107" fill="#0ea5e9" fill-opacity="0.06"/>
  <polygon points="440,100 490,128 490,184 440,212 390,184 390,128" fill="none" stroke="#38bdf8" stroke-opacity="0.25" stroke-width="1"/>
  <polygon points="200,100 250,128 250,184 200,212 150,184 150,128" fill="none" stroke="#38bdf8" stroke-opacity="0.25" stroke-width="1"/>
  <!-- Gear icon suggestion -->
  <circle cx="320" cy="130" r="22" fill="none" stroke="#0ea5e9" stroke-opacity="0.5" stroke-width="2"/>
  <circle cx="320" cy="130" r="10" fill="#0ea5e9" fill-opacity="0.15"/>
  <line x1="320" y1="100" x2="320" y2="160" stroke="#0ea5e9" stroke-opacity="0.3" stroke-width="2"/>
  <line x1="290" y1="130" x2="350" y2="130" stroke="#0ea5e9" stroke-opacity="0.3" stroke-width="2"/>
  <line x1="299" y1="109" x2="341" y2="151" stroke="#0ea5e9" stroke-opacity="0.2" stroke-width="1.5"/>
  <line x1="341" y1="109" x2="299" y2="151" stroke="#0ea5e9" stroke-opacity="0.2" stroke-width="1.5"/>
  <!-- dots -->
  <circle cx="160" cy="250" r="4" fill="#38bdf8" opacity="0.4"/>
  <circle cx="220" cy="265" r="3" fill="#38bdf8" opacity="0.3"/>
  <circle cx="420" cy="250" r="4" fill="#0ea5e9" opacity="0.4"/>
  <circle cx="480" cy="265" r="3" fill="#0ea5e9" opacity="0.3"/>
  <text x="320" y="310" font-family="system-ui, sans-serif" font-size="13" font-weight="600" fill="#38bdf8" text-anchor="middle" opacity="0.7">Ferramentas</text>
</svg>
