<svg xmlns="http://www.w3.org/2000/svg" viewBox="0 0 640 360" width="640" height="360">
  <defs>
    <linearGradient id="bg" x1="0%" y1="0%" x2="100%" y2="100%">
      <stop offset="0%" stop-color="#1a0e2e"/>
      <stop offset="100%" stop-color="#0f172a"/>
    </linearGradient>
  </defs>
  <rect width="640" height="360" fill="url(#bg)"/>
  <!-- Bar chart -->
  <rect x="140" y="200" width="50" height="70"  rx="4" fill="#f97316" fill-opacity="0.5"/>
  <rect x="210" y="160" width="50" height="110" rx="4" fill="#f97316" fill-opacity="0.6"/>
  <rect x="280" y="120" width="50" height="150" rx="4" fill="#f97316" fill-opacity="0.7"/>
  <rect x="350" y="90"  width="50" height="180" rx="4" fill="#f97316" fill-opacity="0.85"/>
  <rect x="420" y="60"  width="50" height="210" rx="4" fill="#f97316"/>
  <!-- Trend line -->
  <polyline points="165,195 235,155 305,115 375,85 445,55" fill="none" stroke="#fbbf24" stroke-width="2.5" stroke-opacity="0.7"/>
  <circle cx="165" cy="195" r="4" fill="#fbbf24"/>
  <circle cx="235" cy="155" r="4" fill="#fbbf24"/>
  <circle cx="305" cy="115" r="4" fill="#fbbf24"/>
  <circle cx="375" cy="85"  r="4" fill="#fbbf24"/>
  <circle cx="445" cy="55"  r="5" fill="#fbbf24"/>
  <!-- X axis -->
  <line x1="120" y1="275" x2="520" y2="275" stroke="#f97316" stroke-opacity="0.2" stroke-width="1"/>
  <text x="320" y="310" font-family="system-ui, sans-serif" font-size="13" font-weight="600" fill="#fb923c" text-anchor="middle" opacity="0.7">Marketing com IA</text>
</svg>
