<svg width="127" height="36" viewBox="0 0 127 36" fill="none" xmlns="http://www.w3.org/2000/svg">
<g clip-path="url(#clip0_1248_2587)">
<path d="M37.7834 16.6686C37.7834 15.0138 37.3624 13.8648 36.5204 13.2215C35.6784 12.5782 34.4596 12.2554 32.8639 12.2529C31.942 12.248 31.0214 12.3256 30.1133 12.4849C29.268 12.6365 28.433 12.8407 27.6131 13.0963C27.0586 12.0814 26.7829 10.9378 26.814 9.78169C27.847 9.45078 28.9064 9.20927 29.9807 9.05984C31.0777 8.89444 32.1854 8.8095 33.2948 8.80572C36.0933 8.80572 38.2216 9.44409 39.6798 10.7208C41.1379 11.9975 41.8646 14.0329 41.8596 16.827V30.321C40.8802 30.5457 39.6871 30.7777 38.2879 31.0134C36.8721 31.257 35.4383 31.3802 34.0017 31.3817C32.751 31.3968 31.5025 31.2733 30.279 31.0134C29.2685 30.8014 28.3115 30.3867 27.4658 29.7944C26.6996 29.2416 26.0853 28.5044 25.6799 27.6509C25.2349 26.6611 25.0196 25.5833 25.0502 24.4984C25.0265 23.3953 25.2797 22.3038 25.7867 21.3238C26.2622 20.418 26.9416 19.635 27.7714 19.0367C28.6493 18.4159 29.6324 17.9593 30.673 17.6888C31.7974 17.3902 32.9563 17.2416 34.1196 17.2469C35.0131 17.2469 35.7496 17.269 36.3289 17.3131C36.9034 17.3537 37.3857 17.4015 37.7797 17.4568L37.7834 16.6686ZM37.7834 20.7456C37.3636 20.6903 36.8297 20.6314 36.1853 20.5762C35.5409 20.5209 34.996 20.4915 34.5467 20.4915C32.8087 20.4915 31.4843 20.8143 30.5736 21.4601C29.6628 22.1058 29.2075 23.0879 29.2075 24.4063C29.1697 25.0952 29.3308 25.7804 29.6714 26.3804C29.9565 26.8411 30.3545 27.2214 30.8277 27.4852C31.302 27.7404 31.8231 27.897 32.3595 27.9456C32.8903 28.0016 33.4238 28.0299 33.9576 28.0303C34.6241 28.0298 35.2903 27.9954 35.9533 27.9272C36.5743 27.8694 37.1899 27.7635 37.7945 27.6104L37.7834 20.7456Z" fill="white"/>
<path d="M112.213 26.9659C113.021 27.2896 113.858 27.5362 114.713 27.7025C115.605 27.8817 116.513 27.973 117.423 27.975C118.043 27.9772 118.661 27.9067 119.264 27.7651C119.808 27.6439 120.327 27.4309 120.8 27.1353C121.219 26.8697 121.576 26.5183 121.849 26.1041C122.117 25.6994 122.257 25.2232 122.251 24.7378C122.269 24.2552 122.159 23.7764 121.934 23.3494C121.722 22.9857 121.436 22.6707 121.094 22.425C120.716 22.1589 120.307 21.94 119.876 21.7731C119.412 21.5926 118.915 21.4048 118.384 21.2501L116.911 20.7014C115.117 20.0311 113.815 19.2749 113.005 18.4327C112.194 17.5906 111.788 16.455 111.786 15.0261C111.751 14.1637 111.916 13.305 112.27 12.5176C112.623 11.7302 113.154 11.0357 113.822 10.4888C115.18 9.3692 117.177 8.80817 119.813 8.80572C120.892 8.80493 121.969 8.91104 123.028 9.12246C123.962 9.30214 124.883 9.54829 125.782 9.85903C125.723 10.4266 125.617 10.9883 125.465 11.5384C125.321 12.0728 125.131 12.5939 124.898 13.0963C124.174 12.84 123.436 12.6224 122.689 12.4444C121.787 12.2284 120.862 12.1221 119.935 12.1277C118.989 12.1104 118.051 12.2963 117.184 12.6727C116.807 12.8294 116.489 13.1001 116.274 13.4468C116.058 13.7936 115.957 14.199 115.984 14.6062C115.971 15.0316 116.073 15.4526 116.278 15.8253C116.478 16.1678 116.751 16.4621 117.077 16.6871C117.436 16.938 117.824 17.1433 118.233 17.2984C118.668 17.4642 119.136 17.6336 119.64 17.803L121.481 18.4327C122.139 18.6502 122.779 18.9174 123.396 19.2319C123.977 19.525 124.502 19.9163 124.95 20.3883C125.401 20.8777 125.757 21.4473 125.999 22.0677C126.285 22.8262 126.421 23.6329 126.401 24.4432C126.413 25.4256 126.198 26.3976 125.771 27.2827C125.349 28.1371 124.739 28.884 123.985 29.4666C123.147 30.1027 122.2 30.5796 121.19 30.8735C120.017 31.2225 118.798 31.3926 117.574 31.378C116.391 31.3922 115.21 31.301 114.043 31.1055C113.086 30.9384 112.145 30.692 111.23 30.3689C111.292 29.7903 111.415 29.2199 111.598 28.6674C111.785 28.0929 111.99 27.5257 112.213 26.9659Z" fill="white"/>
<path d="M4.42237 16.9117V0.176766C4.07624 0.117841 3.71538 0.0736517 3.33979 0.0441888C2.97157 0.0147258 2.58493 -3.8147e-06 2.21302 -3.8147e-06C1.84112 -3.8147e-06 1.47658 -5.61198e-06 1.08258 0.0441888C0.688577 0.0883831 0.34613 0.117841 0 0.176766V31.3522C0.352174 31.4141 0.707402 31.4571 1.06417 31.4811C1.45448 31.5106 1.83375 31.5253 2.21302 31.5253C2.59229 31.5253 2.99734 31.5253 3.36188 31.4811C3.72642 31.4369 4.07624 31.4111 4.42237 31.3522V16.9117ZM17.6784 16.9117L16.9751 13.0116V0.176766C17.32 0.114622 17.6678 0.0703736 18.0172 0.0441888C18.3928 0.0147258 18.7684 -3.8147e-06 19.144 -3.8147e-06C19.5195 -3.8147e-06 19.9025 0.0147258 20.2928 0.0441888C20.6831 0.0736517 21.0514 0.117841 21.3975 0.176766V31.3522C21.0538 31.4133 20.7072 31.4563 20.3591 31.4811C19.9835 31.5106 19.5932 31.5253 19.1881 31.5253C18.7831 31.5253 18.4001 31.5106 18.0393 31.4811C17.6825 31.4569 17.3273 31.4139 16.9751 31.3522V13.0116" fill="white"/>
<path d="M84.7285 11.6452C83.9555 10.7512 82.9933 10.0404 81.9116 9.5644C80.6781 9.03652 79.3461 8.77786 78.0047 8.80571C76.4501 8.76795 74.9066 9.07747 73.4866 9.7117C72.2585 10.2749 71.1735 11.1084 70.3125 12.1498C69.4504 13.2147 68.814 14.4439 68.442 15.7626C68.0262 17.2187 67.8204 18.7267 67.8307 20.241C67.8144 21.756 68.0279 23.2647 68.464 24.7157C68.8554 26.027 69.5376 27.233 70.4598 28.2439C71.4209 29.2719 72.6068 30.0636 73.9248 30.5567C75.5415 31.1382 77.2519 31.4153 78.9695 31.3743C80.203 31.3842 81.435 31.2868 82.6517 31.0834C83.6963 30.9021 84.7176 30.6056 85.6969 30.1995C85.6689 29.5976 85.585 28.9997 85.4465 28.4133C85.3314 27.8796 85.1469 27.3633 84.8979 26.8775C83.0902 27.5799 81.1665 27.936 79.2272 27.9272C76.9541 27.9272 75.2357 27.3809 74.0721 26.2883C72.9085 25.1957 72.2948 23.477 72.231 21.1323H86.8973C86.9268 20.8266 86.9526 20.4546 86.982 20.0274C87.0115 19.6002 87.0225 19.1804 87.0225 18.7863C87.0349 17.4405 86.8374 16.101 86.4371 14.8161C86.0854 13.6555 85.5044 12.5772 84.7285 11.6452ZM72.2862 18.0129C72.4826 16.1641 73.0362 14.7204 73.9469 13.6818C74.8576 12.6433 76.1673 12.1252 77.8759 12.1277C78.6534 12.1081 79.4245 12.2734 80.1257 12.6101C80.7321 12.9122 81.2631 13.3464 81.6796 13.8807C82.0994 14.4426 82.4127 15.0767 82.6038 15.7516C82.8166 16.4826 82.9233 17.2405 82.9205 18.0018L72.2862 18.0129Z" fill="white"/>
<path d="M106.667 10.9344C105.489 9.52018 103.667 8.81184 101.203 8.80938C100.389 8.8057 99.5802 8.92998 98.8054 9.17767C98.1217 9.39585 97.4713 9.7069 96.8722 10.1021C96.333 10.4705 95.8387 10.9006 95.3993 11.3837C95.1351 11.6765 94.8892 11.9852 94.6629 12.3081V8.99353C94.3315 8.93706 93.978 8.89656 93.6024 8.87201C93.2341 8.84254 92.8659 8.82781 92.4977 8.82781C92.1295 8.82781 91.7613 8.82781 91.4151 8.87201C91.0806 8.89463 90.7475 8.93519 90.4172 8.99353V30.8955C90.7656 30.9581 91.1172 31.0012 91.4704 31.0244C91.8607 31.0502 92.2068 31.0649 92.5198 31.0649C92.8328 31.0649 93.1715 31.0649 93.5508 31.0244C93.8954 31.0006 94.2384 30.9576 94.5782 30.8955V19.9685C94.5527 18.8212 94.7169 17.6776 95.0642 16.5839C95.3305 15.7408 95.7666 14.9612 96.3456 14.2932C96.8504 13.7221 97.4806 13.2759 98.1868 12.9894C98.8956 12.7079 99.6519 12.5654 100.415 12.5696C101.759 12.5696 102.738 13.041 103.36 13.9765C103.983 14.9119 104.285 16.3814 104.285 18.3701V30.8918C104.626 30.9536 104.97 30.9967 105.316 31.0207C105.684 31.0465 106.034 31.0613 106.343 31.0613C106.652 31.0613 107.002 31.0612 107.396 31.0207C107.748 30.9973 108.098 30.9542 108.445 30.8918V17.2321C108.436 14.4478 107.843 12.3486 106.667 10.9344Z" fill="white"/>
<path d="M62.5615 8.80573C62.1932 8.80573 61.8434 8.80575 61.4826 8.84995C61.148 8.87257 60.8149 8.91313 60.4847 8.97147V11.8957C59.8649 10.8099 58.923 9.94378 57.7893 9.4171C56.5016 8.75891 55.0744 8.42038 53.6283 8.4301C50.928 8.4301 48.7702 9.27714 47.155 10.9713C45.5397 12.6654 44.7247 15.2225 44.71 18.6427C44.71 22.0358 45.536 24.5586 47.1881 26.211C48.8402 27.8633 51.0397 28.6895 53.7867 28.6895C55.2092 28.7114 56.6165 28.3946 57.8924 27.7651C59.0541 27.207 59.9943 26.2743 60.562 25.1172V27.2606C60.562 28.8835 60.0158 30.1516 58.9234 31.065C57.831 31.9783 56.3041 32.4338 54.3427 32.4313C52.2508 32.4415 50.1733 32.085 48.2044 31.378C48.1098 31.3275 48.0042 31.3009 47.8969 31.3005C47.7897 31.3 47.6839 31.3258 47.5888 31.3755C47.4938 31.4252 47.4123 31.4974 47.3514 31.5858C47.2906 31.6741 47.2522 31.776 47.2397 31.8826L46.5511 33.8603C46.4112 34.1954 46.5805 34.49 47.0555 34.7442C48.7076 35.5839 51.2153 36.0037 54.5784 36.0037C57.7451 36.0037 60.2245 35.2671 62.0165 33.794C63.8085 32.3208 64.7058 30.2118 64.7082 27.4668V8.96778C64.3768 8.91131 64.0233 8.87081 63.6477 8.84626C63.2905 8.82048 62.9223 8.80573 62.5615 8.80573ZM58.9234 23.5814C57.9145 24.7747 56.514 25.37 54.722 25.3676C50.9661 25.3676 49.0881 23.1259 49.0881 18.6427C49.0881 14.1594 50.9661 11.903 54.722 11.8736C56.541 11.8736 57.9488 12.4137 58.9455 13.494C59.9422 14.5743 60.4393 16.2071 60.4368 18.3922C60.4368 20.6609 59.9323 22.3906 58.9234 23.5814Z" fill="white"/>
<path d="M5.11108 20.7198L16.2977 17.0406V12.1277L5.11108 15.8069V20.7198Z" fill="#F509DD"/>
</g>
<defs>
<clipPath id="clip0_1248_2587">
<rect width="126.419" height="36" fill="white"/>
</clipPath>
</defs>
</svg>
